/* XPM */
static char *_4_0[] = {
/* columns rows colors chars-per-pixel */
"64 64 171 2 ",
"   c None",
".  c #0F2D28",
"X  c #1C2B26",
"o  c #12342E",
"O  c #13362F",
"+  c #1F312B",
"@  c #143B2F",
"#  c #153F2F",
"$  c #153A33",
"%  c #382722",
"&  c #21332D",
"*  c #21392D",
"=  c #233A2E",
"-  c #323025",
";  c #3F3A28",
":  c #452520",
">  c #482623",
",  c #402D2A",
"<  c #4F2C29",
"1  c #463128",
"2  c #4A3529",
"3  c #59332D",
"4  c #543B2A",
"5  c #583130",
"6  c #5D3531",
"7  c #5C3532",
"8  c #60352B",
"9  c #6A3B2C",
"0  c #603833",
"q  c #603836",
"w  c #653B37",
"e  c #6B3E34",
"r  c #1F542F",
"t  c #164031",
"y  c #174432",
"u  c #174235",
"i  c #184535",
"p  c #1C4D32",
"a  c #1A4936",
"s  c #1A4D36",
"d  c #184139",
"f  c #1B473E",
"g  c #1A483A",
"h  c #1B4C3A",
"j  c #1B5037",
"k  c #1E5337",
"l  c #1F523B",
"z  c #1D503C",
"x  c #1E573C",
"c  c #1F573D",
"v  c #235B2C",
"b  c #264C36",
"n  c #2B4D37",
"m  c #3E4B32",
"M  c #2D5539",
"N  c #235D38",
"B  c #205B3D",
"V  c #205E3E",
"C  c #21623E",
"Z  c #26633D",
"A  c #286B3F",
"S  c #2C743F",
"D  c #2F7A3D",
"F  c #5B462E",
"G  c #454F32",
"H  c #4C5835",
"J  c #455E39",
"K  c #505031",
"L  c #585835",
"P  c #515E38",
"I  c #614A30",
"U  c #604C31",
"Y  c #714630",
"T  c #764434",
"R  c #724831",
"E  c #784C35",
"W  c #794C36",
"Q  c #73443A",
"!  c #724938",
"~  c #41603C",
"^  c #4B643C",
"/  c #56653B",
"(  c #506B3F",
")  c #526D3F",
"_  c #1D4F40",
"`  c #1E5240",
"'  c #205641",
"]  c #205A41",
"[  c #215D42",
"{  c #225E43",
"}  c #236143",
"|  c #246042",
" . c #236543",
".. c #266743",
"X. c #246544",
"o. c #246843",
"O. c #256944",
"+. c #266C45",
"@. c #296A43",
"#. c #286E44",
"$. c #296F45",
"%. c #267045",
"&. c #277345",
"*. c #2A7441",
"=. c #2B7442",
"-. c #2B7144",
";. c #297245",
":. c #2A7645",
">. c #2C7544",
",. c #2C7843",
"<. c #2E7D40",
"1. c #2D7F43",
"2. c #2B7946",
"3. c #2F7B45",
"4. c #2D7946",
"5. c #2E7C46",
"6. c #307E43",
"7. c #577342",
"8. c #597543",
"9. c #597A45",
"0. c #657642",
"q. c #824E3C",
"w. c #875539",
"e. c #845A3B",
"r. c #8E603C",
"t. c #90623D",
"y. c #895940",
"u. c #9A6944",
"i. c #A56F45",
"p. c #AB7A49",
"a. c #378E3C",
"s. c #36903F",
"d. c #39933F",
"f. c #39953D",
"g. c #3A963F",
"h. c #3E9D3A",
"j. c #3C9B3D",
"k. c #3C9C3D",
"l. c #3FA13B",
"z. c #41A638",
"x. c #43A73B",
"c. c #40A23D",
"v. c #40A23E",
"b. c #45AC39",
"n. c #45AD39",
"m. c #48B236",
"M. c #4AB734",
"N. c #2F8046",
"B. c #328341",
"V. c #308243",
"C. c #308441",
"Z. c #328441",
"A. c #338741",
"S. c #328246",
"D. c #318544",
"F. c #328647",
"G. c #348A41",
"H. c #348B41",
"J. c #378D41",
"K. c #378D42",
"L. c #348844",
"P. c #358B44",
"I. c #368C47",
"U. c #379142",
"Y. c #3B9742",
"T. c #399245",
"R. c #3E9C40",
"E. c #3E9D40",
"W. c #668449",
"Q. c #6B8B4C",
"!. c #72934F",
/* pixels */
"                                                                                                                                ",
"                                                                                                                                ",
"                                                                                                                                ",
"                                                                                                                                ",
"                                                                                                                                ",
"                                                                                                                                ",
"                                                                                                                                ",
"                                                                                                                                ",
"                                                                                                                                ",
"                                                                                                                                ",
"                                                                                                                                ",
"                                                                                                                                ",
"                                                                                                                                ",
"                                                              p   t                                                             ",
"                                                          v N S r &.t N                                                         ",
"                                                      p C m.D N.c.>.P.5.N t p                                                   ",
"                                                  N S @.5.6.U.B.n.>.B.g.>.B.c                                                   ",
"                                              t k.k.B.P.c.B.U.Y.k.B.c.U.5.P.c.D                                                 ",
"                                              N &.g.c.P.N.E.c.m.n.M.n.l.B.P.N.>.O.                                              ",
"                                            N 5.5.B.c.Y.k.n.m.m.M.m.M.m.E.c.B.B.P.S p                                           ",
"                                          k O.5.P.g.s.g.n.c.n.m.m.m.c.E.Y.B.5.B.O.O.O.t                                         ",
"                                          c O.a.a.m.c.Y.Y.E.m.m.m.m.c.Y.E.m.B.B.5.>.@.C                                         ",
"                                        | @.>.Y.c.B.N.g.c.E.n.c.m.Y.n.n.E.P.P.&.N.5.@.c                                         ",
"                                      k 5.P.c.c.B.g.m.m.Y.Y.c.c.m.c.P.E.n.M.c.c.c.B.5.&.C                                       ",
"                                    $ _ ] ` >.&.P.c.c.Y.B.g.k.n.c.c.Y.B.P.E.m.m.k.P.| ' $ O                                     ",
"                                    p O.@.B.5.P.c.Y.E.Y.P.n.Y.n.c.n.k.Y.B.5.I.Y.5.&.B.P.5.p                                     ",
"                                      A 5.>.g.g.B.c.g.O.m.n.P.m.c.c.m.P.c.5.&.B.E.>.| @.5.t                                     ",
"                                  t ` f | O.| O.P.5.O.B.m.Y.P.m.c.P.c.k.Y.g.O.&.B.@.O.O.` ' t                                   ",
"                                    # C &.| B.P.&.O.>.g.P.E.N.c.c.Y.N.c.5.P.c.B.| B.B.>.&.&.t                                   ",
"                                  t N O.| I.I.>.| @.P.>.B.c.>.g.U.c.P.&.&.&.B.P.>.] ` h ] O..                                   ",
"                                  p c _ ` O.| | O.B.B.O.c.c.O.g.&.c.c.O.&.O.>.F.@.O.O.f f ] | t                                 ",
"                                    $ O.&.O.] &.| P.5.O.c.g.O.5.O.5.c.>.&.&.O.| B.B.O.&.] c $                                   ",
"                                  k &.&.| ` &.O.>.B.| &.g.>.O.I.5.&.N.g.O.&.O.&.` ' ] O.&.&.O.t                                 ",
"                                  . p ] ` &.| _ _ &.| 5.5.| 5.I.5.] B.5.>.] ] O.O._ ` _ h $ $                                   ",
"                                  t p $ . f f f O.&.] P.N.| ' P.@.` P.>.| O.` _ ] c _ | ] t                                     ",
"                                        h | f O.&.O.f P.5.| ' P.| _ @.@.| O.&.h ] c $ h ] | t                                   ",
"                                      c | h # &.| _ f 5.&.] ' @.O.f | O._ | &.O._ | c       p                                   ",
"                                    t p     C O.h f f ] O.h ' O.&.f ' &.] _ O.&.i h ] c                                         ",
"                                          t h ] ' O f &.` _ f &.O.h ` | O.' ' c C     p p                                       ",
"                                            c ] O O ] ` $ ' _ &.] f ] _ C f | t p k                                             ",
"                                          t c O   h ' $ $ | ` C ` p h | h i _ | t                                               ",
"                                                  | c   $ | ` k ` p + ] |     t |                                               ",
"                                                  | n !.~ | h X ` p : $ ] c       t                                             ",
"                                                M ~ Q.W.m c + % c * < - b p n !.                                                ",
"                                              !.!.!.) J > & % < * , 0 7 ; W.9.!.!.                                              ",
"                                            !.!.!.Q.F 3 0 7 7 0 7 0 q.! Q U 8.!.!.!.!.                                          ",
"                                            !.!.!.L T 2 3 q.e q.Q y.q u.E ; ^ !.!.!.                                            ",
"                                          !.!.!.!.Q.) U p.T 1 e.T t.E 4 r.9 Q.!.!.!.!.                                          ",
"                                              !.!.!.L w.4 P P r.9 4 i.K G G !.!.!.!.                                            ",
"                                              !.!.!.!.H 7.!.0.9 P / 9 0.!.!.!.!.!.                                              ",
"                                                  !.!.!.!.!.!.!.Q.!.Q.!.!.!.!.                                                  ",
"                                                                !.!.                                                            ",
"                                                                                                                                ",
"                                                                                                                                ",
"                                                                                                                                ",
"                                                                                                                                ",
"                                                                                                                                ",
"                                                                                                                                ",
"                                                                                                                                ",
"                                                                                                                                ",
"                                                                                                                                ",
"                                                                                                                                ",
"                                                                                                                                ",
"                                                                                                                                "
};
