/* XPM */
static char *_4_3[] = {
/* columns rows colors chars-per-pixel */
"64 64 175 2 ",
"   c None",
".  c #251D18",
"X  c #301512",
"o  c #371A16",
"O  c #3A1D14",
"+  c #3C1E1B",
"@  c #1A251D",
"#  c #20211B",
"$  c #2E241C",
"%  c #2C2B1D",
"&  c #3F201C",
"*  c #362A1B",
"=  c #0F2D23",
"-  c #12362B",
";  c #133A2D",
":  c #1C3627",
">  c #143C31",
",  c #2B2923",
"<  c #372826",
"1  c #233628",
"2  c #353925",
"3  c #2F2E3C",
"4  c #3E2C32",
"5  c #412215",
"6  c #492917",
"7  c #44231E",
"8  c #492A1E",
"9  c #502B1E",
"0  c #53331F",
"q  c #462523",
"w  c #4D2A25",
"e  c #4D2A28",
"r  c #422E29",
"t  c #532F26",
"y  c #522E2A",
"u  c #423329",
"i  c #46392A",
"p  c #593226",
"a  c #5A3B24",
"s  c #55302D",
"d  c #59332E",
"f  c #5B3A29",
"g  c #543422",
"h  c #5C3432",
"j  c #62362B",
"k  c #683B2B",
"l  c #643A36",
"z  c #683D31",
"x  c #693F39",
"c  c #15412E",
"v  c #18442C",
"b  c #1A4C2E",
"n  c #164233",
"m  c #194B34",
"M  c #1A4E3C",
"N  c #1C5334",
"B  c #1D593D",
"V  c #254428",
"C  c #3D442C",
"Z  c #20542F",
"A  c #2B4131",
"S  c #205B34",
"D  c #205D3C",
"F  c #3E5533",
"G  c #286835",
"H  c #21623D",
"J  c #256A3D",
"K  c #246135",
"L  c #2D783D",
"P  c #2D763E",
"I  c #317F3E",
"U  c #4D4A29",
"Y  c #414D2D",
"T  c #53442A",
"R  c #5B4F2E",
"E  c #5E412A",
"W  c #49522F",
"Q  c #444331",
"!  c #4E4D32",
"~  c #5D4C31",
"^  c #435130",
"/  c #485832",
"(  c #505B32",
")  c #604025",
"_  c #64432B",
"`  c #6A4A2C",
"'  c #6D462D",
"]  c #6D4E31",
"[  c #6F4135",
"{  c #734232",
"}  c #784635",
"|  c #774A34",
" . c #7A493B",
".. c #6D5031",
"X. c #685B36",
"o. c #765733",
"O. c #785733",
"+. c #7B5D36",
"@. c #7D5D39",
"#. c #4C6D3E",
"$. c #496439",
"%. c #506F3D",
"&. c #51703D",
"*. c #6E643A",
"=. c #73693A",
"-. c #252F43",
";. c #3A3544",
":. c #1C5541",
">. c #1F5C43",
",. c #246B44",
"<. c #267045",
"1. c #2A7945",
"2. c #344B62",
"3. c #2C5474",
"4. c #305C7C",
"5. c #284A6A",
"6. c #406E40",
"7. c #427545",
"8. c #4A7C48",
"9. c #4D7840",
"0. c #7C6B42",
"q. c #667D47",
"w. c #824F35",
"e. c #824E3C",
"r. c #86563B",
"t. c #825E3D",
"y. c #915B3F",
"u. c #84633C",
"i. c #86693D",
"p. c #8C6C41",
"a. c #966242",
"s. c #937345",
"d. c #9B7A49",
"f. c #957B47",
"g. c #827252",
"h. c #35853E",
"j. c #318746",
"k. c #358F46",
"l. c #399646",
"z. c #4E834A",
"x. c #538245",
"c. c #54864A",
"v. c #568C4D",
"b. c #598B4A",
"n. c #5D914D",
"m. c #638242",
"M. c #63954C",
"N. c #689B4F",
"B. c #6D9E50",
"V. c #79AB54",
"C. c #9A804E",
"Z. c #9E8657",
"A. c #A3844F",
"S. c #A88B52",
"D. c #A58954",
"F. c #AD9155",
"G. c #B09056",
"H. c #B1935A",
"J. c #BB9C5D",
"K. c #B79D5C",
"L. c #BDA262",
"P. c #C3A967",
"I. c #CEB36A",
"U. c #D4B96E",
"Y. c #D8BF71",
"T. c #DDC579",
"R. c #E1CB7C",
"E. c #E6D27E",
"W. c #346A88",
"Q. c #3A7795",
"!. c #458BAB",
"~. c #4591AE",
"^. c #4A9BAE",
"/. c #4AADC4",
"(. c #56CBDB",
/* pixels */
"                                                                                                                                ",
"                                                                                                                                ",
"                                                                                                                                ",
"                                                                                                                                ",
"                                                                                                                                ",
"                                                                                                                                ",
"                                                                                                                                ",
"                                                                                                                                ",
"                                                                                                                                ",
"                                                            Z G                                                                 ",
"                                                            G S                                                                 ",
"                                                              S                                                                 ",
"                                                        I Z                                                                     ",
"                                            K h.Z       S l.                                                                    ",
"                                              J k.                Z G                                                           ",
"                                                m       v         1.b                                                           ",
"                                                        c N                                                                     ",
"                                                    7 7   .     o.                                                              ",
"                                            ; J l.H   j p       p.    G N                                                       ",
"                                      P 1.c   = N       '   7 L.`   N 1.c                                                       ",
"                                        n -     <.      |   ..S.          b     h.                                              ",
"                                                c       p E P.a 7 `       H     k.                                              ",
"                                              X p ' 9 @.f p `   s.w w   X       1.                                              ",
"                                        J ,.;   O 8 f y O d     A.5 o p w.      c           L N                                 ",
"                                  N           =.A.u.  1 q s s P.H.s.o.  7 F V             c c                                   ",
"                                  m :       C.S.    $ m   O F.u.t O     * J 1.A . B c     #   b K Z                             ",
"                                      7 7 L.C.    o o   +.p.T @ q s 7   6     r & @             H 1.H                           ",
"                                  N     o.d.7     7   S.o.  B c   @.s { ]       7 w X                                           ",
"                        b j.b     M n   A.` e   o w v V   ; - % H * a j r.5   p | o     m j.b                                   ",
"                          >.<.        6 d.    q 7 A.2 >.n <     M !   ) j z O { & 7       m m                                   ",
"                          ; :.      6 p.p.    w A.a   , $ `         u.u.] e j 7   d                                             ",
"                              * %     a ) p.5 ) ` q 7 7     g.a o u.o.6 p.) z o   w w         L ,.c                             ",
"                              B n c   ) O.  p.+.t h d k w q ^.3 o   d.) ` l 7 h q   w         >.M                               ",
"                            ; n   M   O.u.  @.` ] l s     -.(.Q.      f r.w o.y z o l         n                                 ",
"                                    * @.F.s.d.7 ] p.      W././.      w.j   ` f  .w l                                           ",
"                                      u.D.A.C.o l a A.o.  W.!.~.-.7 z s ..    s.s { l     o.                                    ",
"                                - ;   u.d.H.C.q w   ` J.s.3.~.Q.;.d o 5 s.    s.f y.w   o.o.    :.B                             ",
"                                - M   ' H.J.  q j     5 q 2.Q.W.< g     Z.    C.] a.w s.d.      - :.;                           ",
"                                n > 1   J.R.  q w     z l 4 4.3.a d.K.0 f.    F.] [ P.d.                                        ",
"                              n > ;   ) A.E.5 e w   w.e.o   5.      d.A.p.    J.a S.a                                           ",
"                                        A.Y.O w h p a.7               G.T.    i.P.) q                                           ",
"                                        s.U.t o 7 e.{                 O.Y.    A.a l q                                           ",
"                                        s.I.8 s o e.p                   J.0 A.O.a x q                                           ",
"                                        s.J.5 s } } w     v.          U J.u.u.s.f  .q                                           ",
"                                        t.J.( $.s  .w   v.v.    v.    U J.s.R *.f r.q v.v.                                      ",
"                                  v.v.( t.d.( v.i x w                 U J.s.( z.j r.q v.v.                                      ",
"                                  8.z.( t.p.W c.^ l w     v.v.v.v.v.v.( d.` 8.B.p e.q z.8.v.                                    ",
"                                  b.8.=.0.L.X.z.^ h w   v.v.v.v.v.v.    p.) z.%.h [ < m.z.v.                                    ",
"                                  z.( q.9.L.X.x.u l i v.v.      v.v.z.U t.U 8.u h Q M.C v.v.                                    ",
"                                    v.z.x.*.b.v.o l Y c.  v.v.v.    B.R d.T V.7./ Q B.z.v.v.                                    ",
"                                      v.v.7.b.2 i l w z.v.        8.&.u.G.u.%.v.n.#.v.v.  v.                                    ",
"                                          v.v.6.M.u Q x.8.v.    v.b.b.X.I.~ x.c.  v.                                            ",
"                                            v.z.n.z.M.v.v.v.    v.z.M.b.*.#.M.z.                                                ",
"                                            v.v.v.v.v.v.v.        v.v.v.v.v.v.v.                                                ",
"                                                    v.                  v.                                                      ",
"                                                                                                                                ",
"                                                                                                                                ",
"                                                                                                                                ",
"                                                                                                                                ",
"                                                                                                                                ",
"                                                                                                                                ",
"                                                                                                                                ",
"                                                                                                                                ",
"                                                                                                                                "
};
