/* XPM */
static char *_6add9a3405443279f1b8c189b93205apHDuPSAe6HOPCq2V[] = {
/* columns rows colors chars-per-pixel */
"16 16 7 1 ",
"  c None",
". c black",
"X c #677598",
"o c #414B66",
"O c #242A3D",
"+ c #8F9AB0",
"@ c white",
/* pixels */
"                ",
"  ....  ......  ",
" .XXXo..ooXXXX. ",
".XXXXX.ooXXXXXX.",
".XXXXXoXXXXXXXX.",
".oXXXXOXXXXXXXX.",
".XXXXXoXX++++XX.",
".+++XXoX+XXXX+X.",
".XXXXOOoXXXXXXO.",
".XooooOXXXXoooX.",
".oooooOXoXooooo.",
".oooooOoXoooooo.",
".ooooOOOoooooo..",
"..OOOOOOOOXXXX..",
"..XXXOOOXXXooXX.",
".XXXXXOXooooooX."
};
